<svg xmlns="http://www.w3.org/2000/svg" xmlns:xlink="http://www.w3.org/1999/xlink" width="176" height="24" viewBox="0 0 176 24"><defs><clipPath id="a"><rect width="17.708" height="11.077" fill="none"/></clipPath></defs><g transform="translate(-25 -441)"><g transform="translate(-48)"><g transform="translate(217 441)"><g fill="#fff" stroke="#eaedf1" stroke-width="1"><rect width="32" height="24" rx="6" stroke="none"/><rect x="0.5" y="0.5" width="31" height="23" rx="5.5" fill="none"/></g></g><g transform="translate(217.5 444.682)"><g transform="translate(-0.5 0.318)" fill="rgba(255,0,0,0.1)" stroke="red" stroke-width="1" stroke-dasharray="4 4" opacity="0"><rect width="32" height="16" stroke="none"/><rect x="0.5" y="0.5" width="31" height="15" fill="none"/></g><g transform="translate(8.731 1.549)"><path d="M0,0V13.538H13.538V0Z" fill="#fff"/><path d="M12.5,8.947l1.04,1.107v-2.2ZM5.409,7.062v3.789H8.635V9.974H6.443v-.59H8.581V8.529H6.443v-.59H8.635V7.062Zm6.793,0-1.11,1.212-1.1-1.212H8.635l1.786,1.894L8.635,10.851H9.956l1.115-1.223,1.11,1.223h1.358l-1.8-1.905,1.8-1.884ZM6.28,3.665,6.794,4.9H5.766Zm-.65-.942L3.958,6.512H5.095l.314-.758H7.152l.319.758H8.635L6.962,2.723Zm6.316,0-.85,2.36-.844-2.36H8.635V6.512H9.658V3.86l.974,2.652h.909l.974-2.658V6.512h1.023V2.723ZM0,0V13.538H13.538V11.393H11.905l-.841-.93-.845.93H4.834V7.06H3.1L5.252,2.181H7.331l.742,1.671V2.181h2.574l.447,1.26.45-1.26h2V0Z" fill="#0060af"/></g></g></g><g transform="translate(12)"><g transform="translate(121 441)"><g fill="#fff" stroke="#eaedf1" stroke-width="1"><rect width="32" height="24" rx="6" stroke="none"/><rect x="0.5" y="0.5" width="31" height="23" rx="5.5" fill="none"/></g></g><g transform="translate(121 445)"><g fill="rgba(255,0,0,0.1)" stroke="red" stroke-width="1" stroke-dasharray="4 4" opacity="0"><rect width="32" height="16" stroke="none"/><rect x="0.5" y="0.5" width="31" height="15" fill="none"/></g><g transform="translate(7.146 2.461)"><g clip-path="url(#a)"><path d="M3.469,0h4.42a.861.861,0,0,1,.857,1.122L6.688,9.957a1.5,1.5,0,0,1-1.38,1.12H.888a.861.861,0,0,1-.857-1.12L2.09,1.122A1.5,1.5,0,0,1,3.469,0" transform="translate(-0.001 0)" fill="#e21836"/><path d="M30.867,0H35.95c.617,0,.339.5.194,1.122L34.086,9.957c-.144.617-.1,1.12-.717,1.12H28.286a.859.859,0,0,1-.856-1.12l2.057-8.835A1.5,1.5,0,0,1,30.867,0" transform="translate(-23.347 0)" fill="#00447c"/><path d="M63.871,0h4.42a.86.86,0,0,1,.857,1.122L67.09,9.957a1.5,1.5,0,0,1-1.381,1.12H61.291a.86.86,0,0,1-.857-1.12l2.058-8.835A1.5,1.5,0,0,1,63.871,0" transform="translate(-51.47 0)" fill="#007b84"/><path d="M16.085,19.053a4.736,4.736,0,0,1-.632-.01c-.016.078-.323,1.493-.324,1.494a1.036,1.036,0,0,1-.277.622.5.5,0,0,1-.326.114.3.3,0,0,1-.339-.29l0-.065s.061-.384.061-.386.322-1.289.38-1.46a.1.1,0,0,0,0-.019,4.7,4.7,0,0,1-.745-.01c0,.014-.02.094-.02.094l-.329,1.453-.028.123-.055.4a.593.593,0,0,0,.07.3c.15.262.577.3.818.3a1.587,1.587,0,0,0,.8-.187,1.185,1.185,0,0,0,.512-.8l.037-.144s.332-1.339.388-1.513a.057.057,0,0,1,.006-.019m1.128,1.08a.876.876,0,0,0-.357.084c-.048.024-.093.053-.14.081l.043-.155-.024-.026c-.278.056-.34.064-.6.1l-.022.014a7.584,7.584,0,0,1-.167.92c-.042.179-.086.36-.13.539l.012.023c.264-.014.343-.014.572-.01l.019-.02c.029-.149.033-.184.1-.486.03-.143.093-.457.125-.569a.428.428,0,0,1,.168-.053c.128,0,.113.112.108.156-.006.075-.052.319-.1.529l-.032.135c-.022.1-.047.2-.069.3l.01.02c.26-.014.339-.014.56-.01l.026-.02c.04-.233.052-.295.123-.634l.036-.156c.069-.3.1-.459.052-.585a.3.3,0,0,0-.311-.175m1.261.319c-.138.026-.226.044-.314.055s-.171.027-.3.045l-.01.01-.01.008c-.014.1-.024.185-.042.286s-.04.223-.079.393a1.563,1.563,0,0,1-.063.222,1.9,1.9,0,0,0-.069.219l.008.012.007.011c.125-.006.206-.01.29-.011s.17,0,.3,0l.012-.01.013-.011c.019-.116.022-.147.034-.2s.032-.144.082-.368c.024-.105.05-.21.074-.317s.052-.212.077-.317l0-.013Zm0-.43a.506.506,0,0,0-.494.052c-.148.1-.164.242-.039.317a.5.5,0,0,0,.491-.053c.147-.1.166-.243.042-.317m.758,1.714a.943.943,0,0,0,.71-.277,1.255,1.255,0,0,0,.243-.522.664.664,0,0,0-.059-.6.653.653,0,0,0-.532-.2.977.977,0,0,0-.669.231,1.1,1.1,0,0,0-.3.577c-.048.209-.1.586.243.726a1.013,1.013,0,0,0,.36.059m-.02-.769c.059-.259.128-.476.3-.476.138,0,.148.162.087.421a1.161,1.161,0,0,1-.13.363.214.214,0,0,1-.166.108c-.018,0-.129,0-.13-.164a1.114,1.114,0,0,1,.036-.253m1.607.736.02-.02c.028-.149.033-.184.095-.486.031-.143.1-.457.126-.569a.422.422,0,0,1,.168-.053c.127,0,.112.112.107.157a5.083,5.083,0,0,1-.1.529l-.03.135c-.023.1-.048.2-.071.3l.01.02c.26-.014.337-.014.56-.01l.027-.02c.039-.233.05-.3.123-.634l.035-.156c.07-.3.105-.459.053-.585a.306.306,0,0,0-.312-.175.871.871,0,0,0-.357.084c-.047.024-.093.053-.139.081l.04-.155-.021-.026c-.278.056-.342.064-.6.1l-.02.014a7.912,7.912,0,0,1-.167.92c-.042.179-.086.36-.13.539l.012.023c.264-.014.343-.014.571-.01m1.914.01c.016-.08.114-.554.114-.554s.083-.348.088-.36a.206.206,0,0,1,.052-.05h.038a1.781,1.781,0,0,0,1.091-.236,1.163,1.163,0,0,0,.433-.69,1.04,1.04,0,0,0,.03-.24.5.5,0,0,0-.087-.307c-.163-.229-.489-.233-.864-.234l-.185,0c-.481.006-.673,0-.753-.006-.007.035-.019.1-.019.1s-.172.8-.172.8l-.431,1.776c.42-.005.592-.005.664,0m.319-1.417.182-.793.006-.041,0-.031.073.008.386.033a.315.315,0,0,1,.167.4.582.582,0,0,1-.3.4.954.954,0,0,1-.424.066h-.1Zm1.14.686c-.048.206-.1.583.241.717a.674.674,0,0,0,.309.056.508.508,0,0,0,.294-.135l-.025.094.016.02c.248-.01.325-.01.593-.008l.024-.018c.039-.231.076-.454.178-.9.05-.211.1-.42.15-.631l-.008-.023c-.277.051-.351.062-.618.1l-.02.016-.008.063a.38.38,0,0,0-.194-.16.742.742,0,0,0-.637.231,1.081,1.081,0,0,0-.3.574m.582.013c.059-.254.127-.469.3-.469.112,0,.171.1.159.279-.009.044-.02.09-.032.142-.018.076-.037.15-.055.225a.541.541,0,0,1-.065.132.3.3,0,0,1-.216.1c-.018,0-.127,0-.131-.161a1.1,1.1,0,0,1,.036-.253m3.041-.839-.021-.025c-.274.056-.324.064-.576.1l-.019.018s0,.008,0,.012v0c-.188.433-.182.34-.335.68,0-.016,0-.025,0-.042l-.038-.739-.024-.025c-.288.056-.294.064-.56.1l-.021.018a.2.2,0,0,0,0,.029l0,0a3.727,3.727,0,0,1,.059.4c.015.131.036.263.052.393.026.217.041.324.073.655-.179.3-.222.408-.394.667v0l-.122.192a.092.092,0,0,1-.044.04.183.183,0,0,1-.08.011h-.067l-.1.333.343.006a.423.423,0,0,0,.4-.222l.216-.37h0l.023-.026c.145-.313,1.25-2.208,1.25-2.208m-3.624,4.372h-.146l.539-1.783h.179l.057-.184.005.2c-.007.126.093.238.354.22h.3l.1-.343h-.113c-.065,0-.1-.016-.092-.052l-.005-.208h-.559a7.835,7.835,0,0,0-.829.046.975.975,0,0,0-.272.134l.055-.184H23.25l-.109.365-.546,1.81h-.106l-.1.341h1.041l-.035.114H23.9l.034-.114h.144Zm-.427-1.421a2.318,2.318,0,0,0-.239.093l.138-.456h.415l-.1.332a1.346,1.346,0,0,0-.214.03m.008.651s-.13.016-.216.036a2.129,2.129,0,0,0-.243.106l.143-.474h.417Zm-.233.774h-.416l.121-.4h.415Zm1-1.106h.6l-.086.279h-.608l-.091.306h.532l-.4.568a.166.166,0,0,1-.082.068.239.239,0,0,1-.108.031h-.148l-.1.335h.386a.47.47,0,0,0,.407-.211l.276-.378.059.384a.181.181,0,0,0,.1.13.358.358,0,0,0,.135.058l.133,0h.19l.114-.374h-.075a.314.314,0,0,1-.13-.021.2.2,0,0,1-.019-.08l-.06-.385H25.32l.108-.129h.607l.093-.306h-.562l.088-.279h.561l.1-.345H24.648Zm-5.072,1.184.14-.466h.576L20.3,23.8h-.577l.088-.287h.563l.1-.336h-1.41l-.1.336h.32L19.2,23.8h-.321l-.106.353h.32l-.187.617a.147.147,0,0,0,.035.151.154.154,0,0,0,.1.075.622.622,0,0,0,.148.02h.649l.116-.384-.288.039c-.056,0-.21-.007-.193-.058m.066-2.232-.146.264a.308.308,0,0,1-.085.11.281.281,0,0,1-.13.02H19.1l-.1.338h.253a.573.573,0,0,0,.259-.067c.048-.026.061-.011.1-.047l.085-.074h.79l.1-.351h-.578l.1-.192Zm1.166,2.239c-.013-.019,0-.054.017-.125l.216-.715h.768c.112,0,.193,0,.245-.007a.5.5,0,0,0,.185-.062.346.346,0,0,0,.134-.124,1.056,1.056,0,0,0,.133-.3l.271-.9-.8,0a2.506,2.506,0,0,0-.353.076,1.439,1.439,0,0,0-.265.169l.072-.248H20.84l-.689,2.286a1.411,1.411,0,0,0-.045.192c0,.042.053.083.088.114a.314.314,0,0,0,.161.031c.062,0,.149.008.27.008H21l.116-.392-.339.032a.089.089,0,0,1-.073-.036m.372-1.322h.807l-.051.161a.574.574,0,0,0-.106,0h-.7Zm.162-.539h.813l-.058.194s-.384,0-.445.008a.907.907,0,0,0-.428.191Zm.612,1.238a.087.087,0,0,1-.032.05.16.16,0,0,1-.083.014h-.115l.007-.2h-.478l-.019.957c0,.069.006.109.057.141A.96.96,0,0,0,21.6,25h.3l.108-.358-.261.014-.087.005a.1.1,0,0,1-.036-.022c-.011-.011-.029,0-.026-.073l0-.245.273-.011a.354.354,0,0,0,.265-.094.293.293,0,0,0,.088-.162l.046-.217H21.9Z" transform="translate(-11.462 -16.221)" fill="#fefefe"/></g></g></g></g><g transform="translate(-72)"><g transform="translate(169 441)"><g fill="#fff" stroke="#eaedf1" stroke-width="1"><rect width="32" height="24" rx="6" stroke="none"/><rect x="0.5" y="0.5" width="31" height="23" rx="5.5" fill="none"/></g></g><g transform="translate(169 445)"><g fill="rgba(255,0,0,0.1)" stroke="red" stroke-width="1" stroke-dasharray="4 4" opacity="0"><rect width="32" height="16" stroke="none"/><rect x="0.5" y="0.5" width="31" height="15" fill="none"/></g><g transform="translate(7.385 1.846)"><path d="M13,7.438h4.923v5.538H13Zm6.153,0h4.923v5.538H19.153Zm6.153,0H30.23v5.538H25.307Z" transform="translate(-13 -3.745)" fill="#fff"/><path d="M29,9.34h1.158a.535.535,0,0,1,.574.415.558.558,0,0,1,0,.253.532.532,0,0,1-.555.414H29V9.34ZM30.6,8.116a.537.537,0,0,1,0,.23c-.062.281-.285.384-.574.384H29v-1h1.039A.5.5,0,0,1,30.6,8.116Zm2.326-5.178V13.4a1.846,1.846,0,0,1-1.846,1.846H28V11.062h3.191c.693,0,1.3-.358,1.3-1.026a.94.94,0,0,0-.009-.128c-.07-.5-.543-.814-1.167-.861V9.023a.972.972,0,0,0,.935-.941.853.853,0,0,0-.441-.765,2.057,2.057,0,0,0-1.088-.2H28V4.784a1.846,1.846,0,0,1,1.846-1.846Z" transform="translate(-15.693 -2.937)" fill="#269732"/><path d="M13,10.054V4.783a1.846,1.846,0,0,1,1.846-1.846h3.077V13.4a1.844,1.844,0,0,1-1.844,1.846H13V10.923a7.229,7.229,0,0,0,3.62.032A1.438,1.438,0,0,0,17.637,9.5V7.121H15.873V9.5a.948.948,0,0,1-.736.972A3.584,3.584,0,0,1,13,10.055Z" transform="translate(-13 -2.937)" fill="#034d9b"/><path d="M20.5,7.674V4.783a1.846,1.846,0,0,1,1.846-1.846h3.077V13.4a1.846,1.846,0,0,1-1.844,1.846H20.5V10.508a3.252,3.252,0,0,0,1.821.641,8.1,8.1,0,0,0,2.667-.227v-.867a3.709,3.709,0,0,1-2.035.447,1.324,1.324,0,0,1-1.293-1.41,1.328,1.328,0,0,1,1.313-1.414,3.794,3.794,0,0,1,2.015.45V7.259a8.269,8.269,0,0,0-2.371-.246A3.535,3.535,0,0,0,20.5,7.674Z" transform="translate(-14.347 -2.937)" fill="#ad1031"/></g></g></g><g transform="translate(36)"><g transform="translate(25 441)"><g fill="#fff" stroke="#eaedf1" stroke-width="1"><rect width="32" height="24" rx="6" stroke="none"/><rect x="0.5" y="0.5" width="31" height="23" rx="5.5" fill="none"/></g></g><g transform="translate(25 445)"><g fill="rgba(255,0,0,0.1)" stroke="red" stroke-width="1" stroke-dasharray="4 4" opacity="0"><rect width="32" height="16" stroke="none"/><rect x="0.5" y="0.5" width="31" height="15" fill="none"/></g><g transform="translate(7.04 2.461)"><rect width="4.845" height="8.708" transform="translate(6.537 1.184)" fill="#ff5f00"/><path d="M6.844,5.543A5.528,5.528,0,0,1,8.959,1.189a5.538,5.538,0,1,0,0,8.708A5.528,5.528,0,0,1,6.844,5.543" transform="translate(0 -0.004)" fill="#eb001b"/><path d="M67.206,5.54a5.538,5.538,0,0,1-8.96,4.353,5.538,5.538,0,0,0,0-8.708,5.538,5.538,0,0,1,8.96,4.353Z" transform="translate(-49.286 -0.001)" fill="#f79e1b"/></g></g></g><g transform="translate(-48)"><g transform="translate(73 441)"><g fill="#fff" stroke="#eaedf1" stroke-width="1"><rect width="32" height="24" rx="6" stroke="none"/><rect x="0.5" y="0.5" width="31" height="23" rx="5.5" fill="none"/></g></g><g transform="translate(73 445)"><g fill="rgba(255,0,0,0.1)" stroke="red" stroke-width="1" stroke-dasharray="4 4" opacity="0"><rect width="32" height="16" stroke="none"/><rect x="0.5" y="0.5" width="31" height="15" fill="none"/></g><path d="M6.179.12,4.416,4.576,3.7.787A.789.789,0,0,0,2.922.12H.04L0,.309A7.082,7.082,0,0,1,1.671.867a.716.716,0,0,1,.4.575l1.35,5.225h1.79L7.958.12Zm2.506,0-1.4,6.547H8.978L10.378.12ZM18.4,1.888l.513,2.458H17.5ZM18.147.12a.771.771,0,0,0-.721.48L14.885,6.667h1.778l.353-.978h2.173l.2.978H20.96L19.593.12ZM10.839,2.164c-.011.943.841,1.468,1.483,1.782.66.321.881.527.879.814-.005.44-.526.633-1.014.641a3.544,3.544,0,0,1-1.739-.414l-.307,1.435a5.129,5.129,0,0,0,1.883.348c1.779,0,2.943-.879,2.949-2.24.008-1.728-2.389-1.823-2.373-2.6.005-.234.229-.484.718-.548a3.194,3.194,0,0,1,1.67.293l.3-1.388A4.55,4.55,0,0,0,13.7,0c-1.674,0-2.852.89-2.862,2.164" transform="translate(5.52 4.615)" fill="#1434cb"/></g></g></g></svg>